<svg xmlns="http://www.w3.org/2000/svg" viewBox="0 0 189 231.11"><defs><style>.cls-1,.cls-3{fill:#e4232d;}.cls-2,.cls-4{fill:none;}.cls-2,.cls-3,.cls-4,.cls-5{stroke:#fff;stroke-miterlimit:10;}.cls-2,.cls-3,.cls-5{stroke-width:0.94px;}.cls-4{stroke-width:0.95px;}.cls-5{fill:#fff;}</style></defs><title>アセット 6</title><g id="レイヤー_2" data-name="レイヤー 2"><g id="Layer_1" data-name="Layer 1"><path d="M28.52,198.16h3.21V230.3H28.52Z"/><path d="M39,198.16h6.4a38.8,38.8,0,0,1,7.26.44,8.28,8.28,0,0,1,4.65,2.81,8,8,0,0,1,1.79,5.31,8.58,8.58,0,0,1-1.23,4.62,7.7,7.7,0,0,1-3.53,3,16.21,16.21,0,0,1-6.34,1L59.53,230.3h-4L44,215.38H42.18V230.3H39Zm3.21,3.15v10.93l5.54,0a13.77,13.77,0,0,0,4.76-.61,5,5,0,0,0,2.41-2,5.44,5.44,0,0,0,.86-3,5.21,5.21,0,0,0-.88-2.94,4.88,4.88,0,0,0-2.3-1.89,14,14,0,0,0-4.73-.57Z"/><path d="M79.62,197.35a16.68,16.68,0,0,1,12.22,4.87,16.9,16.9,0,0,1-12,28.89,16.45,16.45,0,0,1-12.07-4.9,16.09,16.09,0,0,1-4.92-11.84,17.13,17.13,0,0,1,2.24-8.59,16.56,16.56,0,0,1,14.49-8.44Zm.14,3.12A13.73,13.73,0,0,0,68,207.34a13.93,13.93,0,0,0-1.79,7A13.52,13.52,0,0,0,79.77,228a13.75,13.75,0,0,0,6.93-1.82,13,13,0,0,0,5-5,14,14,0,0,0,1.78-7,13.61,13.61,0,0,0-1.78-6.92,13.32,13.32,0,0,0-5-5A13.59,13.59,0,0,0,79.77,200.47Z"/><path d="M102.54,198.16h3.21v13.48h16.37V198.16h3.21V230.3h-3.21V214.79H105.75V230.3h-3.21Z"/><path d="M145.36,198.16l15,32.15h-3.47l-5.06-10.58H138l-5,10.58h-3.58l15.19-32.15ZM145,205l-5.51,11.64h11Z"/><path class="cls-1" d="M189,74.86l-16.35-3.56,11-12.85c-9.61-9.54-30.25-12-51.46-5.15a82.91,82.91,0,0,0-8.87,3.45,82.94,82.94,0,0,0,.53-9.41C123.9,25,115.14,6.19,103.1,0L94.29,14.47,85.86,0C73.84,6.24,65.1,25.08,65.1,47.35a82.94,82.94,0,0,0,.53,9.41,82.91,82.91,0,0,0-8.87-3.45c-21.21-6.89-41.85-4.39-51.46,5.15l11,12.85L0,74.86c2.2,13.35,17.41,27.48,38.6,34.36a83,83,0,0,0,9.06,2.39,83,83,0,0,0-5.91,7.25c-13.11,18-17.11,38.44-11,50.53l15.63-6.53L44.7,179.51c13.38,2,31.52-8.07,44.61-26.09a82.88,82.88,0,0,0,5.19-8.08,82.88,82.88,0,0,0,5.19,8.08c13.09,18,31.23,28.12,44.61,26.09l-1.67-16.64,15.63,6.53c6.1-12.09,2.1-32.49-11-50.53a83,83,0,0,0-5.91-7.25,83,83,0,0,0,9.06-2.39C171.59,102.34,186.8,88.21,189,74.86Z"/><polygon class="cls-2" points="141.24 112.77 94.5 146.59 47.76 112.77 65.63 58.01 123.37 58.01 141.24 112.77"/><line class="cls-3" x1="123.3" y1="58.03" x2="172.48" y2="72.55"/><line class="cls-3" x1="172.48" y1="72.55" x2="141.24" y2="112.77"/><line class="cls-3" x1="141.24" y1="112.77" x2="142.52" y2="163.9"/><line class="cls-3" x1="142.52" y1="163.9" x2="94.5" y2="146.41"/><line class="cls-3" x1="94.5" y1="146.41" x2="46.48" y2="163.9"/><line class="cls-3" x1="46.48" y1="163.9" x2="47.76" y2="112.77"/><line class="cls-3" x1="47.76" y1="112.77" x2="16.52" y2="72.55"/><line class="cls-3" x1="16.52" y1="72.55" x2="65.7" y2="58.03"/><line class="cls-3" x1="65.7" y1="58.03" x2="47.76" y2="112.77"/><line class="cls-3" x1="47.76" y1="112.77" x2="94.5" y2="146.41"/><line class="cls-3" x1="94.5" y1="146.41" x2="141.24" y2="112.77"/><line class="cls-3" x1="141.24" y1="112.77" x2="123.3" y2="58.03"/><line class="cls-3" x1="123.3" y1="58.03" x2="65.7" y2="58.03"/><line class="cls-2" x1="65.7" y1="58.06" x2="94.29" y2="15.87"/><line class="cls-2" x1="123.3" y1="58.06" x2="94.29" y2="15.87"/><line class="cls-4" x1="94.23" y1="117.81" x2="121.96" y2="115.36"/><line class="cls-4" x1="66.5" y1="115.36" x2="94.23" y2="117.81"/><polygon class="cls-2" points="121.96 115.36 94.23 131.37 66.5 115.36 66.5 83.34 94.23 67.33 121.96 83.34 121.96 115.36"/><line class="cls-2" x1="121.96" y1="83.26" x2="94.23" y2="80.83"/><line class="cls-2" x1="66.5" y1="83.34" x2="94.23" y2="80.83"/><line class="cls-2" x1="121.96" y1="83.34" x2="110.24" y2="108.56"/><line class="cls-2" x1="94.23" y1="131.37" x2="110.24" y2="108.56"/><line class="cls-2" x1="66.5" y1="83.34" x2="78.22" y2="108.56"/><line class="cls-2" x1="94.23" y1="131.37" x2="78.22" y2="108.56"/><polygon class="cls-2" points="110.24 108.56 94.23 80.83 78.22 108.56 110.24 108.56"/><polygon class="cls-2" points="78.22 89.87 94.23 117.6 110.24 89.87 78.22 89.87"/><line class="cls-2" x1="66.5" y1="83.34" x2="78.22" y2="89.87"/><line class="cls-2" x1="110.24" y1="89.87" x2="121.96" y2="83.34"/><line class="cls-2" x1="94.23" y1="117.6" x2="94.23" y2="131.37"/><circle class="cls-5" cx="94.23" cy="131.37" r="1.93"/><circle class="cls-5" cx="66.5" cy="83.33" r="1.93"/><circle class="cls-5" cx="78.22" cy="108.56" r="1.93"/><circle class="cls-5" cx="110.24" cy="108.56" r="1.93"/><circle class="cls-5" cx="94.23" cy="80.83" r="1.93"/><circle class="cls-5" cx="121.96" cy="83.34" r="1.93"/><line class="cls-2" x1="121.96" y1="115.36" x2="110.24" y2="89.87"/><line class="cls-2" x1="94.23" y1="67.33" x2="110.24" y2="89.87"/><line class="cls-2" x1="66.5" y1="115.36" x2="78.22" y2="89.87"/><line class="cls-2" x1="94.23" y1="67.33" x2="78.22" y2="89.87"/><line class="cls-2" x1="117.34" y1="129.97" x2="94.23" y2="131.37"/><line class="cls-2" x1="132.36" y1="85.67" x2="121.96" y2="83.34"/><line class="cls-2" x1="66.5" y1="115.36" x2="47.76" y2="112.77"/><line class="cls-2" x1="121.96" y1="115.36" x2="141.24" y2="112.77"/><line class="cls-2" x1="65.63" y1="58.01" x2="94.23" y2="67.33"/><line class="cls-2" x1="123.37" y1="58.01" x2="94.23" y2="67.33"/><line class="cls-2" x1="46.48" y1="163.9" x2="71.13" y2="129.95"/><line class="cls-2" x1="94.23" y1="131.37" x2="71.13" y2="129.95"/><line class="cls-2" x1="142.52" y1="163.9" x2="117.34" y2="129.97"/><line class="cls-2" x1="172.48" y1="72.55" x2="132.36" y2="85.67"/><line class="cls-2" x1="94.29" y1="15.87" x2="94.29" y2="58.03"/><line class="cls-2" x1="16.52" y1="72.55" x2="57.13" y2="85.64"/><line class="cls-2" x1="57.13" y1="85.64" x2="68.43" y2="83.33"/></g></g></svg>