<svg xmlns="http://www.w3.org/2000/svg" viewBox="0 0 91.83 91.83"><defs><style>.cls-1{fill:#e4232d;}.cls-2{fill:#fff;}</style></defs><title>アセット 2</title><g id="レイヤー_2" data-name="レイヤー 2"><g id="Layer_1" data-name="Layer 1"><circle class="cls-1" cx="45.92" cy="45.92" r="45.92"/><path class="cls-2" d="M73.67,59.35l-14.49-6a5.86,5.86,0,0,1-1.46-.87l-.3-.25a5.79,5.79,0,0,0-6.89-.48,8.31,8.31,0,0,1-9.19,0,5.8,5.8,0,0,0-6.9.48l-.3.25a5.86,5.86,0,0,1-1.46.87l-14.49,6a5.39,5.39,0,0,0-2.94,3.15,6,6,0,0,0,5.56,8.32H71a6,6,0,0,0,5.56-8.32A5.39,5.39,0,0,0,73.67,59.35Z"/><path class="cls-2" d="M45.92,9A14.38,14.38,0,0,0,31.56,22.83c0,.19,0,.38,0,.57a14.51,14.51,0,0,0,.13,1.93c.53,7.35,2.7,13.74,5.81,17.9,2.37,3.18,5.29,5.06,8.44,5.06s6.07-1.88,8.44-5c3.11-4.16,5.28-10.55,5.81-17.91q.09-1.23.12-2.5A14.38,14.38,0,0,0,45.92,9Z"/></g></g></svg>